<?xml version="1.0" encoding="UTF-8"?>
<svg xmlns="http://www.w3.org/2000/svg" height="555" width="555" class="pyqrcode"><path transform="scale(15)" stroke="#000" class="pyqrline" d="M4 4.5h7m5 0h2m1 0h1m1 0h3m2 0h7m-29 1h1m5 0h1m2 0h5m1 0h2m1 0h1m1 0h1m1 0h1m5 0h1m-29 1h1m1 0h3m1 0h1m1 0h1m2 0h1m1 0h2m3 0h1m1 0h1m1 0h1m1 0h3m1 0h1m-29 1h1m1 0h3m1 0h1m1 0h1m2 0h1m3 0h2m2 0h2m1 0h1m1 0h3m1 0h1m-29 1h1m1 0h3m1 0h1m2 0h4m1 0h1m2 0h1m1 0h2m1 0h1m1 0h3m1 0h1m-29 1h1m5 0h1m3 0h3m3 0h3m1 0h1m1 0h1m5 0h1m-29 1h7m1 0h1m1 0h1m1 0h1m1 0h1m1 0h1m1 0h1m1 0h1m1 0h7m-16 1h1m1 0h1m3 0h2m-18 1h2m1 0h2m1 0h3m3 0h1m2 0h3m4 0h2m-27 1h1m2 0h2m2 0h1m2 0h2m2 0h1m5 0h3m1 0h2m-26 1h1m1 0h2m2 0h1m2 0h1m1 0h1m1 0h1m1 0h2m1 0h1m3 0h1m1 0h1m1 0h1m-24 1h1m4 0h6m1 0h1m2 0h1m2 0h5m-25 1h2m2 0h3m3 0h3m1 0h6m1 0h3m3 0h1m-27 1h1m1 0h1m2 0h1m1 0h1m3 0h2m1 0h3m3 0h4m2 0h1m-28 1h1m2 0h3m1 0h2m3 0h1m1 0h6m3 0h1m3 0h1m-29 1h2m1 0h1m3 0h5m2 0h2m2 0h3m3 0h5m-27 1h1m1 0h3m1 0h1m1 0h2m2 0h3m1 0h1m1 0h1m1 0h4m1 0h2m-29 1h1m1 0h2m5 0h2m4 0h4m1 0h1m1 0h1m2 0h1m1 0h2m-29 1h2m1 0h1m1 0h5m1 0h1m1 0h1m3 0h2m1 0h4m1 0h2m1 0h1m-29 1h6m1 0h1m3 0h1m1 0h1m4 0h1m2 0h1m1 0h1m2 0h1m-27 1h2m2 0h1m1 0h3m1 0h2m2 0h2m4 0h9m-21 1h1m1 0h2m1 0h2m1 0h1m1 0h1m1 0h1m3 0h3m-27 1h7m1 0h3m2 0h1m1 0h6m1 0h1m1 0h1m1 0h1m-27 1h1m5 0h1m2 0h1m1 0h1m1 0h1m1 0h2m2 0h2m3 0h2m-26 1h1m1 0h3m1 0h1m1 0h2m1 0h1m5 0h9m2 0h1m-29 1h1m1 0h3m1 0h1m1 0h1m2 0h2m1 0h1m2 0h1m1 0h1m1 0h1m4 0h2m-28 1h1m1 0h3m1 0h1m2 0h1m1 0h2m2 0h3m1 0h1m4 0h1m2 0h2m-29 1h1m5 0h1m3 0h2m1 0h1m1 0h1m3 0h2m1 0h2m2 0h1m1 0h1m-29 1h7m3 0h1m2 0h2m1 0h2m2 0h1m5 0h1"/></svg>
